<svg width="19" height="20" viewBox="0 0 19 20" fill="none" xmlns="http://www.w3.org/2000/svg">
<path d="M17.4167 0.5H3.16667C2.74674 0.5 2.34401 0.642984 2.04708 0.897498C1.75015 1.15201 1.58333 1.49721 1.58333 1.85714V4.57143H0V5.92857H1.58333V9.32143H0V10.6786H1.58333V14.0714H0V15.4286H1.58333V18.1429C1.58333 18.5028 1.75015 18.848 2.04708 19.1025C2.34401 19.357 2.74674 19.5 3.16667 19.5H17.4167C17.8366 19.5 18.2393 19.357 18.5363 19.1025C18.8332 18.848 19 18.5028 19 18.1429V1.85714C19 1.49721 18.8332 1.15201 18.5363 0.897498C18.2393 0.642984 17.8366 0.5 17.4167 0.5ZM17.4167 18.1429H3.16667V15.4286H4.75V14.0714H3.16667V10.6786H4.75V9.32143H3.16667V5.92857H4.75V4.57143H3.16667V1.85714H17.4167V18.1429Z" fill="#A5A5A5"/>
</svg>
