<svg width="24" height="20" viewBox="0 0 24 20" fill="none" xmlns="http://www.w3.org/2000/svg">
<path d="M22.5 20C22.5 20 24 20 24 18.3333C24 16.6667 22.5 11.6667 16.5 11.6667C10.5 11.6667 9 16.6667 9 18.3333C9 20 10.5 20 10.5 20H22.5ZM10.533 18.3333C10.5219 18.3316 10.5109 18.3294 10.5 18.3267C10.5015 17.8867 10.7505 16.61 11.64 15.46C12.468 14.3817 13.923 13.3333 16.5 13.3333C19.0755 13.3333 20.5305 14.3833 21.36 15.46C22.2495 16.61 22.497 17.8883 22.5 18.3267L22.488 18.33C22.481 18.3313 22.474 18.3324 22.467 18.3333H10.533ZM16.5 8.33333C17.2956 8.33333 18.0587 7.98214 18.6213 7.35702C19.1839 6.7319 19.5 5.88405 19.5 5C19.5 4.11594 19.1839 3.2681 18.6213 2.64298C18.0587 2.01786 17.2956 1.66667 16.5 1.66667C15.7044 1.66667 14.9413 2.01786 14.3787 2.64298C13.8161 3.2681 13.5 4.11594 13.5 5C13.5 5.88405 13.8161 6.7319 14.3787 7.35702C14.9413 7.98214 15.7044 8.33333 16.5 8.33333ZM21 5C21 5.65661 20.8836 6.30679 20.6575 6.91342C20.4313 7.52004 20.0998 8.07124 19.682 8.53553C19.2641 8.99983 18.768 9.36812 18.2221 9.6194C17.6761 9.87067 17.0909 10 16.5 10C15.9091 10 15.3239 9.87067 14.7779 9.6194C14.232 9.36812 13.7359 8.99983 13.318 8.53553C12.9002 8.07124 12.5687 7.52004 12.3425 6.91342C12.1164 6.30679 12 5.65661 12 5C12 3.67392 12.4741 2.40215 13.318 1.46447C14.1619 0.526784 15.3065 0 16.5 0C17.6935 0 18.8381 0.526784 19.682 1.46447C20.5259 2.40215 21 3.67392 21 5ZM10.404 12.1333C9.80397 11.9234 9.18545 11.7854 8.559 11.7217C8.207 11.6845 7.85359 11.6661 7.5 11.6667C1.5 11.6667 0 16.6667 0 18.3333C0 19.445 0.4995 20 1.5 20H7.824C7.60163 19.4797 7.49074 18.9092 7.5 18.3333C7.5 16.65 8.0655 14.93 9.135 13.4933C9.4995 13.0033 9.924 12.545 10.404 12.1333ZM7.38 13.3333C6.49223 14.8155 6.01266 16.553 6 18.3333H1.5C1.5 17.9 1.746 16.6167 2.64 15.46C3.4575 14.4 4.878 13.3667 7.38 13.335V13.3333ZM2.25 5.83333C2.25 4.50725 2.72411 3.23548 3.56802 2.2978C4.41193 1.36012 5.55653 0.833333 6.75 0.833333C7.94347 0.833333 9.08807 1.36012 9.93198 2.2978C10.7759 3.23548 11.25 4.50725 11.25 5.83333C11.25 7.15942 10.7759 8.43118 9.93198 9.36887C9.08807 10.3065 7.94347 10.8333 6.75 10.8333C5.55653 10.8333 4.41193 10.3065 3.56802 9.36887C2.72411 8.43118 2.25 7.15942 2.25 5.83333ZM6.75 2.5C5.95435 2.5 5.19129 2.85119 4.62868 3.47631C4.06607 4.10143 3.75 4.94928 3.75 5.83333C3.75 6.71739 4.06607 7.56523 4.62868 8.19036C5.19129 8.81548 5.95435 9.16667 6.75 9.16667C7.54565 9.16667 8.30871 8.81548 8.87132 8.19036C9.43393 7.56523 9.75 6.71739 9.75 5.83333C9.75 4.94928 9.43393 4.10143 8.87132 3.47631C8.30871 2.85119 7.54565 2.5 6.75 2.5Z" fill="#A5A5A5"/>
</svg>
