<svg width="24" height="24" viewBox="0 0 24 24" fill="none" xmlns="http://www.w3.org/2000/svg">
<path d="M12 22C17.5228 22 22 17.5228 22 12C22 6.47715 17.5228 2 12 2C6.47715 2 2 6.47715 2 12C2 17.5228 6.47715 22 12 22Z" stroke="#A5A5A5" stroke-width="1.5" stroke-linecap="round" stroke-linejoin="round"/>
<path d="M9.09375 8.99959C9.32885 8.33126 9.7929 7.7677 10.4037 7.40873C11.0145 7.04975 11.7326 6.91853 12.4309 7.0383C13.1292 7.15808 13.7626 7.52112 14.2188 8.06312C14.6751 8.60512 14.9248 9.29112 14.9237 9.99959C14.9237 11.9996 11.9237 12.9996 11.9237 12.9996" stroke="#A5A5A5" stroke-width="1.5" stroke-linecap="round" stroke-linejoin="round"/>
<path d="M12 17H12.01" stroke="#A5A5A5" stroke-width="1.5" stroke-linecap="round" stroke-linejoin="round"/>
</svg>
