<svg width="20" height="22" viewBox="0 0 20 22" fill="none" xmlns="http://www.w3.org/2000/svg">
<path fill-rule="evenodd" clip-rule="evenodd" d="M10.648 0.5C11.3905 0.5 12.1124 0.797959 12.6299 1.31584C13.1463 1.83676 13.4315 2.55125 13.4097 3.27588C13.4118 3.43905 13.4668 3.62755 13.5663 3.79275C13.7312 4.06638 13.9915 4.25894 14.3006 4.33799C14.6096 4.41299 14.9332 4.37245 15.208 4.21333C16.5355 3.47249 18.2249 3.91639 18.983 5.20349L19.6291 6.29702C19.6457 6.32641 19.6602 6.35478 19.6726 6.38417C20.3592 7.65202 19.9008 9.24823 18.6252 9.97691C18.4396 10.0813 18.2892 10.2272 18.1855 10.4036C18.0247 10.6762 17.9801 11.0005 18.061 11.2985C18.144 11.6025 18.3421 11.8549 18.6211 12.0109C19.2506 12.3646 19.7204 12.9605 19.9081 13.6487C20.0958 14.3358 19.9931 15.0817 19.627 15.6969L18.9384 16.8178C18.1803 18.0907 16.4909 18.5316 15.1769 17.7897C15.0017 17.6914 14.7994 17.6377 14.5982 17.6326H14.592C14.2923 17.6326 13.9843 17.7573 13.7603 17.9752C13.5332 18.1971 13.4087 18.4931 13.4108 18.8072C13.4035 20.296 12.1642 21.5 10.648 21.5H9.34855C7.82508 21.5 6.58577 20.2899 6.58577 18.8011C6.5837 18.6177 6.52977 18.4272 6.42917 18.262C6.26635 17.9843 6.00293 17.7857 5.69907 17.7066C5.39728 17.6276 5.06645 17.6711 4.79474 17.8252C4.14345 18.1799 3.37705 18.266 2.67599 18.0735C1.97596 17.8799 1.37135 17.4097 1.01667 16.7864L0.368494 15.6949C-0.389609 14.4098 0.0615191 12.7629 1.37446 12.0211C1.74677 11.8113 1.97804 11.4201 1.97804 11.0005C1.97804 10.5809 1.74677 10.1887 1.37446 9.97894C0.0604821 9.23302 -0.389609 7.58209 0.367457 6.29702L1.0706 5.16903C1.81833 3.89815 3.50876 3.4502 4.82689 4.19002C5.0063 4.29441 5.20127 4.34711 5.39935 4.34914C6.04545 4.34914 6.58577 3.82822 6.59614 3.18771C6.59199 2.48132 6.87719 1.80332 7.39676 1.29152C7.91841 0.78073 8.61118 0.5 9.34855 0.5H10.648ZM10.648 2.0202H9.34855C9.02705 2.0202 8.7263 2.14283 8.49918 2.36376C8.2731 2.58571 8.14968 2.88063 8.15176 3.1948C8.12998 4.67649 6.89067 5.86934 5.39002 5.86934C4.90882 5.86427 4.44524 5.73758 4.04286 5.50246C3.47765 5.18829 2.73925 5.38186 2.40842 5.94433L1.70632 7.07232C1.38483 7.61756 1.58187 8.33814 2.15434 8.66346C3.00371 9.14384 3.53365 10.0397 3.53365 11.0005C3.53365 11.9613 3.00371 12.8562 2.15227 13.3376C1.58291 13.6598 1.38587 14.3764 1.71566 14.9338L2.37005 16.0364C2.53184 16.3212 2.79629 16.5269 3.10223 16.611C3.40713 16.6941 3.74314 16.6587 4.02315 16.5067C4.43487 16.2705 4.914 16.1479 5.39521 16.1479C5.6327 16.1479 5.87019 16.1773 6.10249 16.2381C6.80356 16.4225 7.41232 16.8806 7.77322 17.4958C8.0076 17.8819 8.13724 18.3329 8.14139 18.793C8.14139 19.4518 8.68274 19.9798 9.34855 19.9798H10.648C11.3107 19.9798 11.852 19.4548 11.8552 18.8072C11.851 18.0917 12.1372 17.4117 12.661 16.8999C13.1774 16.3952 13.8992 16.0922 14.621 16.1124C15.094 16.1236 15.5492 16.2482 15.9506 16.4712C16.5282 16.7945 17.2656 16.6019 17.5995 16.0445L18.2881 14.9226C18.4416 14.6642 18.4862 14.3399 18.4043 14.0409C18.3234 13.7419 18.1201 13.4825 17.8464 13.3294C17.2054 12.9687 16.7481 12.3869 16.5583 11.6897C16.3706 11.0056 16.4733 10.2587 16.8394 9.64348C17.0779 9.23809 17.4274 8.89655 17.8464 8.66143C18.4085 8.34016 18.6055 7.62162 18.2788 7.06218C18.2653 7.03989 18.2529 7.01658 18.2425 6.99225L17.6348 5.96257C17.304 5.4001 16.5676 5.20653 15.99 5.5278C15.3657 5.88859 14.6231 5.99196 13.9096 5.80853C13.1971 5.62813 12.5998 5.18727 12.2275 4.56501C11.9889 4.17584 11.8593 3.72282 11.8552 3.26169C11.8645 2.91509 11.74 2.60395 11.514 2.37592C11.2889 2.14891 10.9726 2.0202 10.648 2.0202ZM10.0028 7.568C11.9391 7.568 13.5144 9.10847 13.5144 11.0006C13.5144 12.8927 11.9391 14.4312 10.0028 14.4312C8.06661 14.4312 6.49129 12.8927 6.49129 11.0006C6.49129 9.10847 8.06661 7.568 10.0028 7.568ZM10.0028 9.0882C8.92428 9.0882 8.04691 9.9466 8.04691 11.0006C8.04691 12.0546 8.92428 12.911 10.0028 12.911C11.0814 12.911 11.9588 12.0546 11.9588 11.0006C11.9588 9.9466 11.0814 9.0882 10.0028 9.0882Z" fill="#A5A5A5"/>
</svg>
