<svg width="18" height="20" viewBox="0 0 18 20" fill="none" xmlns="http://www.w3.org/2000/svg">
<path fill-rule="evenodd" clip-rule="evenodd" d="M18 1.42611C18 0.489113 16.995 -0.136887 16.149 0.328113C15.012 0.952113 11.646 2.77011 9.631 3.57111C7.286 4.50211 5.267 4.85211 2.953 4.96011C1.35 5.03411 0 6.32911 0 8.00011V12.0001C0 13.6711 1.35 14.9661 2.953 15.0401C3.227 15.0531 3.496 15.0691 3.763 15.0891L3.019 18.8041C2.96702 19.0643 3.02052 19.3345 3.16774 19.5552C3.31495 19.7759 3.54382 19.9291 3.804 19.9811C4.06418 20.0331 4.33435 19.9796 4.55508 19.8324C4.77581 19.6852 4.92902 19.4563 4.981 19.1961L5.754 15.3281C7.017 15.5431 8.269 15.8881 9.631 16.4291C11.646 17.2301 15.011 19.0491 16.149 19.6721C16.995 20.1371 18 19.5111 18 18.5741V1.42611ZM6 13.3421C7.418 13.5771 8.833 13.9601 10.37 14.5711C12.022 15.2271 14.456 16.4901 16 17.3171V2.68311C14.456 3.51011 12.022 4.77311 10.37 5.42911C8.833 6.03911 7.418 6.42311 6 6.65911V13.3421ZM4 6.89911C3.685 6.92311 3.368 6.94311 3.046 6.95811C2.443 6.98611 2 7.46211 2 8.00011V12.0001C2 12.5381 2.443 13.0141 3.046 13.0421C3.368 13.0571 3.686 13.0771 4 13.1021V6.89811V6.89911Z" fill="#A5A5A5"/>
</svg>
